<?xml version="1.0" encoding="UTF-8" standalone="no"?>
<svg
   xmlns:dc="http://purl.org/dc/elements/1.1/"
   xmlns:cc="http://creativecommons.org/ns#"
   xmlns:rdf="http://www.w3.org/1999/02/22-rdf-syntax-ns#"
   xmlns:svg="http://www.w3.org/2000/svg"
   xmlns="http://www.w3.org/2000/svg"
   id="svg24"
   xml:space="preserve"
   style="enable-background:new 0 0 47 47;"
   viewBox="0 0 47 47"
   version="1.1">

<g id="g22" transform="matrix(0,-0.69458822,0.77331469,0,-0.11015046,33.298117)">
	<path d="m 17.567,15.938 -2.859,-2.702 c 0.333,-0.605 0.539,-1.29 0.539,-2.029 0,-2.342 -1.897,-4.239 -4.24,-4.239 -2.343,0 -4.243,1.896 -4.243,4.239 0,2.343 1.9,4.241 4.243,4.241 0.826,0 1.59,-0.246 2.242,-0.654 l 2.855,2.699 c 0.432,-0.571 0.919,-1.094 1.463,-1.555 z"
		  id="path10"/>
	<path d="m 29.66,15.6 3.799,-6.393 c 0.374,0.107 0.762,0.184 1.169,0.184 2.347,0 4.244,-1.898 4.244,-4.241 0,-2.342 -1.897,-4.239 -4.244,-4.239 -2.343,0 -4.239,1.896 -4.239,4.239 0,1.163 0.469,2.214 1.227,2.981 l -3.787,6.375 c 0.651,0.295 1.265,0.663 1.831,1.094 z"
		  id="path12"/>
	<path d="m 42.762,20.952 c -1.824,0 -3.369,1.159 -3.968,2.775 l -5.278,-0.521 c 0,0.04 0.006,0.078 0.006,0.117 0,0.688 -0.076,1.36 -0.213,2.009 l 5.276,0.521 c 0.319,2.024 2.062,3.576 4.177,3.576 2.342,0 4.238,-1.896 4.238,-4.238 0,-2.341 -1.896,-4.239 -4.238,-4.239 z"
		  id="path14"/>
	<path d="m 28.197,37.624 -1.18,-5.156 c -0.666,0.232 -1.359,0.398 -2.082,0.481 l 1.182,5.157 c -1.355,0.709 -2.29,2.11 -2.29,3.746 0,2.342 1.896,4.237 4.243,4.237 2.342,0 4.238,-1.896 4.238,-4.237 0.003,-2.299 -1.829,-4.16 -4.111,-4.228 z"
		  id="path16"/>
	<path d="m 14.357,25.37 -6.57,2.201 C 7.029,26.413 5.724,25.645 4.239,25.645 1.896,25.645 0,27.542 0,29.884 c 0,2.345 1.896,4.242 4.239,4.242 2.341,0 4.242,-1.897 4.242,-4.242 0,-0.098 -0.021,-0.188 -0.029,-0.284 l 6.591,-2.207 C 14.746,26.752 14.51,26.077 14.357,25.37 Z"
		  id="path18"/>
	<circle cx="23.83"
			cy="23.323"
			r="7.2709999"
			id="circle20"/>
</g>
	<path d="m 40.997224,23.791599 c 0,-3.089637 -2.513735,-5.603372 -5.603372,-5.603372 -3.089637,0 -5.603372,2.513735 -5.603372,5.603372 0,3.089637 2.513735,5.603372 5.603372,5.603372 3.089637,0 5.603372,-2.513735 5.603372,-5.603372 z m 0,0"
		  id="path12-6"/>
	<path d="m 35.393852,29.394971 c -4.482697,0 -8.255732,3.175244 -9.152174,7.433709 2.353222,2.353708 5.603372,3.773035 9.152174,3.773035 3.548802,0 6.798952,-1.419327 9.152174,-3.773035 -0.876986,-4.296405 -4.68115,-7.433709 -9.152174,-7.433709 z m 0,0"
		  id="path14-0"/>
</svg>
